<?xml version="1.0"?><svg width="460.34183" height="444.82458" xmlns="http://www.w3.org/2000/svg" xmlns:xlink="http://www.w3.org/1999/xlink">
 <title>Coming Soon</title>
 <defs>
  <linearGradient id="linearGradient3164">
   <stop id="stop3166" offset="0" stop-color="#d2d2d2"/>
   <stop id="stop3168" offset="1" stop-color="#ffffff"/>
  </linearGradient>
  <linearGradient x1="0.065192" y1="0.140961" x2="0.097165" y2="0.215907" id="linearGradient3206" xlink:href="#linearGradient3164"/>
 </defs>
 <g>
  <title>Layer 1</title>
  <path d="m12.26631,63.62994c50.97341,-19.827721 134.539797,-30.11438 134.539797,-30.11438l238.09465,-31.4476l25.594971,193.78345c0,0 13.674561,113.147186 46.846375,167.184784c-77.612549,32.186401 -215.034851,52.193665 -215.034851,52.193665l-193.783451,25.594971l-43.78274,-331.485901c0,0 -6.97918,-26.445305 7.52525,-45.708988z" id="path3162" stroke-miterlimit="4" stroke-width="4" fill-rule="nonzero" fill-opacity="0.392157" fill="#000000"/>
  <path d="m9.83775,62.562229c58.473392,-16.827728 137.039813,-27.11438 137.039813,-27.11438l238.094666,-31.447609l25.59491,193.783452c0,0 8.767273,75.993164 41.939087,130.030823c-63.192383,76.137878 -210.127548,89.347595 -210.127548,89.347595l-193.783428,25.594971l-43.782749,-331.485901c0,0 -3.79605,-31.873466 5.02525,-48.70895z" id="rect2385" stroke-miterlimit="4" stroke-width="4" stroke="#000000" fill-rule="nonzero" fill="url(#linearGradient3206)"/>
  <text fill="#000000" stroke="#000000" stroke-width="0" x="196.658" y="231.175" id="svg_2" font-size="24" font-family="Arial" text-anchor="middle" xml:space="preserve" transform="rotate(-12.3801, 200.57, 223.096) matrix(23.4023, 0, 0, 1, -4401.64, 0)"/>
  <text fill="#000000" stroke="#000000" stroke-width="0" x="216.658" y="222.175" id="svg_5" font-size="42" font-family="Comic Sans MS" text-anchor="middle" xml:space="preserve" transform="rotate(-11.409, 214.156, 205.176)" font-weight="bold">Coming Soon!</text>
 </g>
</svg>